# Blender v3.1.2 OBJ File: 'Buoy_hull.blend'
# www.blender.org
mtllib Floor_2.mtl
o Floor_2_Cylinder.004
v 0.000000 6.258294 -1.916101
v 0.000000 6.337819 -1.916101
v 0.373813 6.258294 -1.879284
v 0.373813 6.337819 -1.879284
v 0.733260 6.258294 -1.770246
v 0.733260 6.337819 -1.770246
v 1.064529 6.258294 -1.593180
v 1.064529 6.337819 -1.593180
v 1.354888 6.258294 -1.354888
v 1.354888 6.337819 -1.354888
v 1.593180 6.258294 -1.064529
v 1.593180 6.337819 -1.064529
v 1.770246 6.258294 -0.733260
v 1.770246 6.337819 -0.733260
v 1.879284 6.258294 -0.373813
v 1.879284 6.337819 -0.373813
v 1.916101 6.258294 0.000000
v 1.916101 6.337819 0.000000
v 1.879284 6.258294 0.373813
v 1.879284 6.337819 0.373813
v 1.770247 6.258294 0.733260
v 1.770247 6.337819 0.733260
v 1.593180 6.258294 1.064529
v 1.593180 6.337819 1.064529
v 1.354888 6.258294 1.354888
v 1.354888 6.337819 1.354888
v 1.064529 6.258294 1.593180
v 1.064529 6.337819 1.593180
v 0.733260 6.258294 1.770246
v 0.733260 6.337819 1.770246
v 0.373813 6.258294 1.879284
v 0.373813 6.337819 1.879284
v -0.000000 6.258294 1.916101
v -0.000000 6.337819 1.916101
v -0.373813 6.258294 1.879284
v -0.373813 6.337819 1.879284
v -0.733260 6.258294 1.770246
v -0.733260 6.337819 1.770246
v -1.064529 6.258294 1.593180
v -1.064529 6.337819 1.593180
v -1.354888 6.258294 1.354888
v -1.354888 6.337819 1.354888
v -1.593179 6.258294 1.064529
v -1.593179 6.337819 1.064529
v -1.770246 6.258294 0.733260
v -1.770246 6.337819 0.733260
v -1.879284 6.258294 0.373813
v -1.879284 6.337819 0.373813
v -1.916101 6.258294 -0.000000
v -1.916101 6.337819 -0.000000
v -1.879284 6.258294 -0.373813
v -1.879284 6.337819 -0.373813
v -1.770246 6.258294 -0.733260
v -1.770246 6.337819 -0.733260
v -1.593180 6.258294 -1.064528
v -1.593180 6.337819 -1.064528
v -1.354888 6.258294 -1.354888
v -1.354888 6.337819 -1.354888
v -1.064529 6.258294 -1.593180
v -1.064529 6.337819 -1.593180
v -0.733260 6.258294 -1.770247
v -0.733260 6.337819 -1.770247
v -0.373813 6.258294 -1.879284
v -0.373813 6.337819 -1.879284
vt 0.245853 0.469372
vt 0.245853 0.577971
vt 0.239065 0.577971
vt 0.239065 0.469372
vt 0.232278 0.577971
vt 0.232278 0.469372
vt 0.225491 0.577971
vt 0.225491 0.469372
vt 0.218703 0.577971
vt 0.218703 0.469372
vt 0.211916 0.577971
vt 0.211916 0.469372
vt 0.205128 0.577971
vt 0.205128 0.469372
vt 0.198341 0.577971
vt 0.198341 0.469372
vt 0.191553 0.577971
vt 0.191553 0.469372
vt 0.184766 0.577971
vt 0.184766 0.469372
vt 0.177979 0.577971
vt 0.177979 0.469372
vt 0.171191 0.577971
vt 0.171191 0.469372
vt 0.164404 0.577971
vt 0.164404 0.469372
vt 0.157616 0.577971
vt 0.157616 0.469372
vt 0.150829 0.577971
vt 0.150829 0.469372
vt 0.144042 0.577971
vt 0.144042 0.469372
vt 0.137254 0.577971
vt 0.137254 0.469372
vt 0.130467 0.577971
vt 0.130467 0.469372
vt 0.123679 0.577971
vt 0.123679 0.469372
vt 0.116892 0.577971
vt 0.116892 0.469372
vt 0.110104 0.577971
vt 0.110104 0.469372
vt 0.103317 0.577971
vt 0.103317 0.469372
vt 0.096530 0.577971
vt 0.096530 0.469372
vt 0.089742 0.577971
vt 0.089742 0.469372
vt 0.082955 0.577971
vt 0.082955 0.469372
vt 0.076167 0.577971
vt 0.076167 0.469372
vt 0.069380 0.577971
vt 0.069380 0.469372
vt 0.062593 0.577971
vt 0.062593 0.469372
vt 0.055805 0.577971
vt 0.055805 0.469372
vt 0.049018 0.577971
vt 0.049018 0.469372
vt 0.042230 0.577971
vt 0.042230 0.469372
vt 0.673930 0.525405
vt 0.656151 0.527156
vt 0.638372 0.525405
vt 0.621277 0.520219
vt 0.605521 0.511797
vt 0.591711 0.500464
vt 0.580378 0.486654
vt 0.571956 0.470898
vt 0.566770 0.453803
vt 0.565019 0.436024
vt 0.566770 0.418245
vt 0.571956 0.401149
vt 0.580378 0.385393
vt 0.591711 0.371584
vt 0.605521 0.360250
vt 0.621277 0.351829
vt 0.638372 0.346643
vt 0.656151 0.344891
vt 0.673930 0.346643
vt 0.691026 0.351829
vt 0.706782 0.360250
vt 0.720591 0.371584
vt 0.731925 0.385393
vt 0.740346 0.401149
vt 0.745532 0.418245
vt 0.747283 0.436024
vt 0.745532 0.453803
vt 0.740346 0.470898
vt 0.731925 0.486654
vt 0.720591 0.500464
vt 0.706782 0.511797
vt 0.691026 0.520219
vt 0.035443 0.577971
vt 0.035443 0.469372
vt 0.028655 0.577971
vt 0.028655 0.469372
vt 0.481816 0.426424
vt 0.500206 0.424613
vt 0.517889 0.419249
vt 0.534186 0.410538
vt 0.548471 0.398815
vt 0.560194 0.384531
vt 0.568904 0.368234
vt 0.574269 0.350550
vt 0.576080 0.332161
vt 0.574269 0.313770
vt 0.568904 0.296087
vt 0.560194 0.279790
vt 0.548471 0.265506
vt 0.534186 0.253783
vt 0.517889 0.245072
vt 0.500206 0.239708
vt 0.481816 0.237897
vt 0.463426 0.239708
vt 0.445743 0.245072
vt 0.429446 0.253783
vt 0.415161 0.265506
vt 0.403439 0.279790
vt 0.394728 0.296087
vt 0.389363 0.313770
vt 0.387552 0.332161
vt 0.389363 0.350550
vt 0.394728 0.368234
vt 0.403439 0.384531
vt 0.415161 0.398815
vt 0.429446 0.410538
vt 0.445743 0.419249
vt 0.463426 0.424613
vn 0.0980 0.0000 -0.9952
vn 0.2903 0.0000 -0.9569
vn 0.4714 0.0000 -0.8819
vn 0.6344 0.0000 -0.7730
vn 0.7730 0.0000 -0.6344
vn 0.8819 0.0000 -0.4714
vn 0.9569 0.0000 -0.2903
vn 0.9952 0.0000 -0.0980
vn 0.9952 0.0000 0.0980
vn 0.9569 0.0000 0.2903
vn 0.8819 0.0000 0.4714
vn 0.7730 0.0000 0.6344
vn 0.6344 0.0000 0.7730
vn 0.4714 0.0000 0.8819
vn 0.2903 0.0000 0.9569
vn 0.0980 0.0000 0.9952
vn -0.0980 0.0000 0.9952
vn -0.2903 0.0000 0.9569
vn -0.4714 0.0000 0.8819
vn -0.6344 0.0000 0.7730
vn -0.7730 0.0000 0.6344
vn -0.8819 0.0000 0.4714
vn -0.9569 0.0000 0.2903
vn -0.9952 0.0000 0.0980
vn -0.9952 0.0000 -0.0980
vn -0.9569 0.0000 -0.2903
vn -0.8819 0.0000 -0.4714
vn -0.7730 0.0000 -0.6344
vn -0.6344 0.0000 -0.7730
vn -0.4714 0.0000 -0.8819
vn 0.0000 1.0000 -0.0000
vn -0.2903 0.0000 -0.9569
vn -0.0980 0.0000 -0.9952
vn 0.0000 -1.0000 -0.0000
usemtl Hull-material
s off
f 1/1/1 2/2/1 4/3/1 3/4/1
f 3/4/2 4/3/2 6/5/2 5/6/2
f 5/6/3 6/5/3 8/7/3 7/8/3
f 7/8/4 8/7/4 10/9/4 9/10/4
f 9/10/5 10/9/5 12/11/5 11/12/5
f 11/12/6 12/11/6 14/13/6 13/14/6
f 13/14/7 14/13/7 16/15/7 15/16/7
f 15/16/8 16/15/8 18/17/8 17/18/8
f 17/18/9 18/17/9 20/19/9 19/20/9
f 19/20/10 20/19/10 22/21/10 21/22/10
f 21/22/11 22/21/11 24/23/11 23/24/11
f 23/24/12 24/23/12 26/25/12 25/26/12
f 25/26/13 26/25/13 28/27/13 27/28/13
f 27/28/14 28/27/14 30/29/14 29/30/14
f 29/30/15 30/29/15 32/31/15 31/32/15
f 31/32/16 32/31/16 34/33/16 33/34/16
f 33/34/17 34/33/17 36/35/17 35/36/17
f 35/36/18 36/35/18 38/37/18 37/38/18
f 37/38/19 38/37/19 40/39/19 39/40/19
f 39/40/20 40/39/20 42/41/20 41/42/20
f 41/42/21 42/41/21 44/43/21 43/44/21
f 43/44/22 44/43/22 46/45/22 45/46/22
f 45/46/23 46/45/23 48/47/23 47/48/23
f 47/48/24 48/47/24 50/49/24 49/50/24
f 49/50/25 50/49/25 52/51/25 51/52/25
f 51/52/26 52/51/26 54/53/26 53/54/26
f 53/54/27 54/53/27 56/55/27 55/56/27
f 55/56/28 56/55/28 58/57/28 57/58/28
f 57/58/29 58/57/29 60/59/29 59/60/29
f 59/60/30 60/59/30 62/61/30 61/62/30
f 4/63/31 2/64/31 64/65/31 62/66/31 60/67/31 58/68/31 56/69/31 54/70/31 52/71/31 50/72/31 48/73/31 46/74/31 44/75/31 42/76/31 40/77/31 38/78/31 36/79/31 34/80/31 32/81/31 30/82/31 28/83/31 26/84/31 24/85/31 22/86/31 20/87/31 18/88/31 16/89/31 14/90/31 12/91/31 10/92/31 8/93/31 6/94/31
f 61/62/32 62/61/32 64/95/32 63/96/32
f 63/96/33 64/95/33 2/97/33 1/98/33
f 1/99/34 3/100/34 5/101/34 7/102/34 9/103/34 11/104/34 13/105/34 15/106/34 17/107/34 19/108/34 21/109/34 23/110/34 25/111/34 27/112/34 29/113/34 31/114/34 33/115/34 35/116/34 37/117/34 39/118/34 41/119/34 43/120/34 45/121/34 47/122/34 49/123/34 51/124/34 53/125/34 55/126/34 57/127/34 59/128/34 61/129/34 63/130/34
