# Blender v3.1.2 OBJ File: 'Buoy_hull.blend'
# www.blender.org
mtllib Floor_1.mtl
o Floor_1_Cylinder.003
v 0.000000 7.983844 -2.094484
v 0.000000 8.063369 -2.094484
v 0.408614 7.983844 -2.054239
v 0.408614 8.063369 -2.054239
v 0.801524 7.983844 -1.935051
v 0.801524 8.063369 -1.935051
v 1.163633 7.983844 -1.741500
v 1.163633 8.063369 -1.741500
v 1.481024 7.983844 -1.481024
v 1.481024 8.063369 -1.481024
v 1.741500 7.983844 -1.163633
v 1.741500 8.063369 -1.163633
v 1.935051 7.983844 -0.801524
v 1.935051 8.063369 -0.801524
v 2.054239 7.983844 -0.408614
v 2.054239 8.063369 -0.408614
v 2.094484 7.983844 0.000000
v 2.094484 8.063369 0.000000
v 2.054239 7.983844 0.408614
v 2.054239 8.063369 0.408614
v 1.935051 7.983844 0.801524
v 1.935051 8.063369 0.801524
v 1.741500 7.983844 1.163633
v 1.741500 8.063369 1.163633
v 1.481024 7.983844 1.481024
v 1.481024 8.063369 1.481024
v 1.163633 7.983844 1.741500
v 1.163633 8.063369 1.741500
v 0.801524 7.983844 1.935051
v 0.801524 8.063369 1.935051
v 0.408614 7.983844 2.054239
v 0.408614 8.063369 2.054239
v -0.000000 7.983844 2.094484
v -0.000000 8.063369 2.094484
v -0.408613 7.983844 2.054239
v -0.408613 8.063369 2.054239
v -0.801524 7.983844 1.935051
v -0.801524 8.063369 1.935051
v -1.163633 7.983844 1.741500
v -1.163633 8.063369 1.741500
v -1.481024 7.983844 1.481024
v -1.481024 8.063369 1.481024
v -1.741500 7.983844 1.163633
v -1.741500 8.063369 1.163633
v -1.935051 7.983844 0.801525
v -1.935051 8.063369 0.801525
v -2.054239 7.983844 0.408614
v -2.054239 8.063369 0.408614
v -2.094484 7.983844 -0.000000
v -2.094484 8.063369 -0.000000
v -2.054239 7.983844 -0.408614
v -2.054239 8.063369 -0.408614
v -1.935051 7.983844 -0.801525
v -1.935051 8.063369 -0.801525
v -1.741500 7.983844 -1.163633
v -1.741500 8.063369 -1.163633
v -1.481024 7.983844 -1.481024
v -1.481024 8.063369 -1.481024
v -1.163633 7.983844 -1.741500
v -1.163633 8.063369 -1.741500
v -0.801524 7.983844 -1.935051
v -0.801524 8.063369 -1.935051
v -0.408613 7.983844 -2.054239
v -0.408613 8.063369 -2.054239
vt 0.031668 0.452302
vt 0.031668 0.346741
vt 0.038266 0.346741
vt 0.038266 0.452302
vt 0.044864 0.346741
vt 0.044864 0.452302
vt 0.051461 0.346741
vt 0.051461 0.452302
vt 0.058059 0.346741
vt 0.058059 0.452302
vt 0.064656 0.346741
vt 0.064656 0.452302
vt 0.071254 0.346741
vt 0.071254 0.452302
vt 0.077851 0.346741
vt 0.077851 0.452302
vt 0.084449 0.346741
vt 0.084449 0.452302
vt 0.091047 0.346741
vt 0.091047 0.452302
vt 0.097644 0.346741
vt 0.097644 0.452302
vt 0.104242 0.346741
vt 0.104242 0.452302
vt 0.110839 0.346741
vt 0.110839 0.452302
vt 0.117437 0.346741
vt 0.117437 0.452302
vt 0.124034 0.346741
vt 0.124034 0.452302
vt 0.130632 0.346741
vt 0.130632 0.452302
vt 0.137230 0.346741
vt 0.137230 0.452302
vt 0.143827 0.346741
vt 0.143827 0.452302
vt 0.150425 0.346741
vt 0.150425 0.452302
vt 0.157022 0.346741
vt 0.157022 0.452302
vt 0.163620 0.346741
vt 0.163620 0.452302
vt 0.170217 0.346741
vt 0.170217 0.452302
vt 0.176815 0.346741
vt 0.176815 0.452302
vt 0.183413 0.346741
vt 0.183413 0.452302
vt 0.190010 0.346741
vt 0.190010 0.452302
vt 0.196608 0.346741
vt 0.196608 0.452302
vt 0.203205 0.346741
vt 0.203205 0.452302
vt 0.209803 0.346741
vt 0.209803 0.452302
vt 0.216400 0.346741
vt 0.216400 0.452302
vt 0.222998 0.346741
vt 0.222998 0.452302
vt 0.229596 0.346741
vt 0.229596 0.452302
vt 0.374681 0.580902
vt 0.356963 0.582647
vt 0.339246 0.580902
vt 0.322209 0.575734
vt 0.306508 0.567342
vt 0.292746 0.556048
vt 0.281452 0.542286
vt 0.273060 0.526585
vt 0.267892 0.509548
vt 0.266147 0.491831
vt 0.267892 0.474113
vt 0.273060 0.457077
vt 0.281452 0.441376
vt 0.292746 0.427614
vt 0.306508 0.416319
vt 0.322209 0.407927
vt 0.339246 0.402759
vt 0.356963 0.401014
vt 0.374681 0.402759
vt 0.391717 0.407927
vt 0.407418 0.416319
vt 0.421180 0.427614
vt 0.432475 0.441376
vt 0.440867 0.457077
vt 0.446035 0.474113
vt 0.447780 0.491831
vt 0.446035 0.509548
vt 0.440867 0.526585
vt 0.432475 0.542286
vt 0.421180 0.556048
vt 0.407418 0.567342
vt 0.391717 0.575734
vt 0.236193 0.346741
vt 0.236193 0.452302
vt 0.242791 0.346741
vt 0.242791 0.452302
vt 0.521306 0.667161
vt 0.538663 0.665452
vt 0.555353 0.660389
vt 0.570735 0.652167
vt 0.584218 0.641102
vt 0.595282 0.627620
vt 0.603504 0.612238
vt 0.608567 0.595547
vt 0.610277 0.578190
vt 0.608567 0.560833
vt 0.603504 0.544142
vt 0.595282 0.528760
vt 0.584218 0.515278
vt 0.570735 0.504213
vt 0.555353 0.495991
vt 0.538663 0.490929
vt 0.521306 0.489219
vt 0.503948 0.490929
vt 0.487258 0.495991
vt 0.471876 0.504213
vt 0.458394 0.515278
vt 0.447329 0.528760
vt 0.439107 0.544142
vt 0.434044 0.560833
vt 0.432335 0.578190
vt 0.434044 0.595547
vt 0.439107 0.612238
vt 0.447329 0.627620
vt 0.458394 0.641102
vt 0.471876 0.652167
vt 0.487258 0.660389
vt 0.503948 0.665452
vn 0.0980 0.0000 -0.9952
vn 0.2903 0.0000 -0.9569
vn 0.4714 0.0000 -0.8819
vn 0.6344 0.0000 -0.7730
vn 0.7730 0.0000 -0.6344
vn 0.8819 0.0000 -0.4714
vn 0.9569 0.0000 -0.2903
vn 0.9952 0.0000 -0.0980
vn 0.9952 0.0000 0.0980
vn 0.9569 0.0000 0.2903
vn 0.8819 0.0000 0.4714
vn 0.7730 0.0000 0.6344
vn 0.6344 0.0000 0.7730
vn 0.4714 0.0000 0.8819
vn 0.2903 0.0000 0.9569
vn 0.0980 0.0000 0.9952
vn -0.0980 0.0000 0.9952
vn -0.2903 0.0000 0.9569
vn -0.4714 0.0000 0.8819
vn -0.6344 0.0000 0.7730
vn -0.7730 0.0000 0.6344
vn -0.8819 0.0000 0.4714
vn -0.9569 0.0000 0.2903
vn -0.9952 0.0000 0.0980
vn -0.9952 0.0000 -0.0980
vn -0.9569 0.0000 -0.2903
vn -0.8819 0.0000 -0.4714
vn -0.7730 0.0000 -0.6344
vn -0.6344 0.0000 -0.7730
vn -0.4714 0.0000 -0.8819
vn 0.0000 1.0000 -0.0000
vn -0.2903 0.0000 -0.9569
vn -0.0980 0.0000 -0.9952
vn 0.0000 -1.0000 -0.0000
usemtl Hull-material
s off
f 1/1/1 2/2/1 4/3/1 3/4/1
f 3/4/2 4/3/2 6/5/2 5/6/2
f 5/6/3 6/5/3 8/7/3 7/8/3
f 7/8/4 8/7/4 10/9/4 9/10/4
f 9/10/5 10/9/5 12/11/5 11/12/5
f 11/12/6 12/11/6 14/13/6 13/14/6
f 13/14/7 14/13/7 16/15/7 15/16/7
f 15/16/8 16/15/8 18/17/8 17/18/8
f 17/18/9 18/17/9 20/19/9 19/20/9
f 19/20/10 20/19/10 22/21/10 21/22/10
f 21/22/11 22/21/11 24/23/11 23/24/11
f 23/24/12 24/23/12 26/25/12 25/26/12
f 25/26/13 26/25/13 28/27/13 27/28/13
f 27/28/14 28/27/14 30/29/14 29/30/14
f 29/30/15 30/29/15 32/31/15 31/32/15
f 31/32/16 32/31/16 34/33/16 33/34/16
f 33/34/17 34/33/17 36/35/17 35/36/17
f 35/36/18 36/35/18 38/37/18 37/38/18
f 37/38/19 38/37/19 40/39/19 39/40/19
f 39/40/20 40/39/20 42/41/20 41/42/20
f 41/42/21 42/41/21 44/43/21 43/44/21
f 43/44/22 44/43/22 46/45/22 45/46/22
f 45/46/23 46/45/23 48/47/23 47/48/23
f 47/48/24 48/47/24 50/49/24 49/50/24
f 49/50/25 50/49/25 52/51/25 51/52/25
f 51/52/26 52/51/26 54/53/26 53/54/26
f 53/54/27 54/53/27 56/55/27 55/56/27
f 55/56/28 56/55/28 58/57/28 57/58/28
f 57/58/29 58/57/29 60/59/29 59/60/29
f 59/60/30 60/59/30 62/61/30 61/62/30
f 4/63/31 2/64/31 64/65/31 62/66/31 60/67/31 58/68/31 56/69/31 54/70/31 52/71/31 50/72/31 48/73/31 46/74/31 44/75/31 42/76/31 40/77/31 38/78/31 36/79/31 34/80/31 32/81/31 30/82/31 28/83/31 26/84/31 24/85/31 22/86/31 20/87/31 18/88/31 16/89/31 14/90/31 12/91/31 10/92/31 8/93/31 6/94/31
f 61/62/32 62/61/32 64/95/32 63/96/32
f 63/96/33 64/95/33 2/97/33 1/98/33
f 1/99/34 3/100/34 5/101/34 7/102/34 9/103/34 11/104/34 13/105/34 15/106/34 17/107/34 19/108/34 21/109/34 23/110/34 25/111/34 27/112/34 29/113/34 31/114/34 33/115/34 35/116/34 37/117/34 39/118/34 41/119/34 43/120/34 45/121/34 47/122/34 49/123/34 51/124/34 53/125/34 55/126/34 57/127/34 59/128/34 61/129/34 63/130/34
