# Blender v3.1.2 OBJ File: 'Buoy_hull.blend'
# www.blender.org
mtllib Level_3_1.mtl
o Level_3_1_Cylinder.036
v -2.135174 6.178942 -0.000000
v -2.094146 6.178942 -0.416552
v -1.972643 6.178942 -0.817096
v -1.775332 6.178942 -1.186238
v -1.509796 6.178942 -1.509796
v -1.855595 4.944050 -0.000000
v -1.819940 4.944050 -0.362009
v -1.714346 4.944050 -0.710106
v -1.542871 4.944050 -1.030913
v -1.312104 4.944050 -1.312104
v -0.890355 4.079631 -0.890355
v -1.234957 4.079630 -0.245648
v -1.163304 4.079631 -0.481857
v -1.259152 4.079631 -0.000000
v -1.046946 4.079631 -0.699547
v -1.940132 6.305597 -0.000000
v -1.902853 6.305597 -0.378502
v -1.792449 6.305597 -0.742457
v -1.613162 6.305597 -1.077879
v -1.371881 6.305597 -1.371881
v -1.686093 5.116422 -0.000000
v -1.653695 5.116422 -0.328941
v -1.557746 5.116422 -0.645240
v -1.401935 5.116422 -0.936743
v -1.192248 5.116422 -1.192248
v -0.809024 4.091387 -0.809024
v -1.122148 4.091387 -0.223209
v -1.057040 4.091387 -0.437841
v -1.144132 4.091387 -0.000000
v -0.951311 4.091387 -0.635646
vt 0.223537 0.090272
vt 0.245552 0.092297
vt 0.242351 0.111113
vt 0.220354 0.105065
vt 0.235960 0.129314
vt 0.214716 0.119775
vt 0.226883 0.146423
vt 0.206876 0.133909
vt 0.215736 0.162163
vt 0.196852 0.147241
vt 0.181207 0.116305
vt 0.173866 0.125371
vt 0.187053 0.106279
vt 0.191395 0.095556
vt 0.194533 0.083844
vt 0.220711 0.083178
vt 0.220420 0.068130
vt 0.242821 0.066541
vt 0.242901 0.083203
vt 0.218632 0.053303
vt 0.240836 0.049539
vt 0.215165 0.038553
vt 0.237118 0.032722
vt 0.209560 0.023342
vt 0.231873 0.016826
vt 0.184894 0.048125
vt 0.182107 0.038257
vt 0.187442 0.058880
vt 0.189325 0.070014
vt 0.190755 0.080552
vt 0.251530 0.066123
vt 0.251367 0.084034
vt 0.249544 0.048154
vt 0.245669 0.030408
vt 0.239780 0.013238
vt 0.179843 0.049226
vt 0.177416 0.038993
vt 0.182140 0.059804
vt 0.183887 0.070781
vt 0.185681 0.081892
vt 0.184299 0.033612
vt 0.209940 0.014875
vt 0.232166 0.007901
vn -0.9708 -0.2198 -0.0956
vn -0.9335 -0.2198 -0.2832
vn -0.8604 -0.2198 -0.4599
vn -0.7541 -0.2198 -0.6189
vn -0.6372 -0.5661 -0.5230
vn -0.7270 -0.5661 -0.3886
vn -0.7889 -0.5661 -0.2393
vn -0.8204 -0.5661 -0.0808
vn 0.9734 0.2080 0.0959
vn 0.9360 0.2080 0.2839
vn 0.8626 0.2080 0.4611
vn 0.7561 0.2080 0.6205
vn 0.6841 0.4657 0.5614
vn 0.7805 0.4657 0.4172
vn 0.8469 0.4657 0.2569
vn 0.8807 0.4657 0.0867
vn -0.5438 0.8375 -0.0536
vn -0.5229 0.8375 -0.1586
vn -0.4819 0.8375 -0.2576
vn -0.4224 0.8375 -0.3467
vn 0.0790 -0.9948 0.0648
vn 0.0901 -0.9948 0.0482
vn 0.0978 -0.9948 0.0297
vn 0.1017 -0.9948 0.0100
vn 0.0000 0.0000 1.0000
vn 0.7071 0.0000 -0.7071
usemtl Hull-material
s off
f 6/1/1 1/2/1 2/3/1 7/4/1
f 7/4/2 2/3/2 3/5/2 8/6/2
f 8/6/3 3/5/3 4/7/3 9/8/3
f 9/8/4 4/7/4 5/9/4 10/10/4
f 15/11/5 9/8/5 10/10/5 11/12/5
f 13/13/6 8/6/6 9/8/6 15/11/6
f 12/14/7 7/4/7 8/6/7 13/13/7
f 14/15/8 6/1/8 7/4/8 12/14/8
f 21/16/9 22/17/9 17/18/9 16/19/9
f 22/17/10 23/20/10 18/21/10 17/18/10
f 23/20/11 24/22/11 19/23/11 18/21/11
f 24/22/12 25/24/12 20/25/12 19/23/12
f 30/26/13 26/27/13 25/24/13 24/22/13
f 28/28/14 30/26/14 24/22/14 23/20/14
f 27/29/15 28/28/15 23/20/15 22/17/15
f 29/30/16 27/29/16 22/17/16 21/16/16
f 16/19/17 17/18/17 2/31/17 1/32/17
f 17/18/18 18/21/18 3/33/18 2/31/18
f 18/21/19 19/23/19 4/34/19 3/33/19
f 19/23/20 20/25/20 5/35/20 4/34/20
f 26/27/21 30/26/21 15/36/21 11/37/21
f 30/26/22 28/28/22 13/38/22 15/36/22
f 28/28/23 27/29/23 12/39/23 13/38/23
f 27/29/24 29/30/24 14/40/24 12/39/24
f 14/15/25 29/30/25 21/16/25 16/19/25 1/2/25 6/1/25
f 11/41/26 10/42/26 5/43/26 20/25/26 25/24/26 26/27/26
