# Blender v3.1.2 OBJ File: 'Buoy_hull.blend'
# www.blender.org
mtllib Level_1_7.mtl
o Level_1_7_Cylinder.017
v 0.000000 8.040938 -2.360434
v 0.460498 8.040938 -2.315079
v 0.903300 8.040938 -2.180757
v 1.311387 8.040938 -1.962629
v 1.669079 8.040938 -1.669079
v 0.000000 9.916734 -2.405822
v 0.469353 9.916734 -2.359594
v 0.920669 9.916734 -2.222689
v 1.336603 9.916734 -2.000368
v 1.701173 9.916734 -1.701173
v 0.000000 8.098663 -2.144816
v 0.418433 8.098663 -2.103604
v 0.820786 8.098663 -1.981552
v 1.191596 8.098663 -1.783350
v 1.516614 8.098663 -1.516615
v 0.000000 9.905018 -2.186058
v 0.426479 9.905018 -2.144053
v 0.836569 9.905018 -2.019654
v 1.214509 9.905018 -1.817641
v 1.545776 9.905018 -1.545777
vt 0.870001 0.783592
vt 0.837881 0.781542
vt 0.837778 0.757917
vt 0.872675 0.760270
vt 0.868751 0.805755
vt 0.837217 0.804037
vt 0.868184 0.827974
vt 0.836158 0.826395
vt 0.868676 0.851117
vt 0.833942 0.849993
vt 0.867363 0.927558
vt 0.867694 0.949309
vt 0.834244 0.950026
vt 0.833907 0.927857
vt 0.867305 0.905804
vt 0.833847 0.905685
vt 0.867518 0.884052
vt 0.834064 0.883515
vt 0.868003 0.862303
vt 0.834559 0.861348
vt 0.822824 0.847626
vt 0.825293 0.825603
vt 0.826296 0.803660
vt 0.826771 0.781548
vt 0.826150 0.759194
vt 0.883662 0.762836
vt 0.880786 0.784548
vt 0.879559 0.806173
vt 0.879127 0.827877
vt 0.880037 0.849698
vt 0.839534 0.746607
vt 0.873122 0.749000
vn 0.6342 -0.0241 -0.7728
vn 0.4713 -0.0241 -0.8817
vn 0.2902 -0.0241 -0.9567
vn 0.0980 -0.0241 -0.9949
vn -0.6342 0.0227 0.7728
vn -0.4713 0.0227 0.8817
vn -0.2902 0.0227 0.9567
vn -0.0980 0.0227 0.9949
vn -0.0052 0.9986 0.0532
vn -0.0155 0.9986 0.0512
vn -0.0252 0.9986 0.0472
vn -0.0339 0.9986 0.0414
vn -0.1648 -0.9657 0.2008
vn -0.1225 -0.9657 0.2291
vn -0.0754 -0.9657 0.2486
vn -0.0255 -0.9657 0.2585
vn 0.7071 -0.0000 0.7071
vn -1.0000 0.0000 0.0000
usemtl Hull-material
s off
f 4/1/1 9/2/1 10/3/1 5/4/1
f 3/5/2 8/6/2 9/2/2 4/1/2
f 2/7/3 7/8/3 8/6/3 3/5/3
f 1/9/4 6/10/4 7/8/4 2/7/4
f 14/11/5 15/12/5 20/13/5 19/14/5
f 13/15/6 14/11/6 19/14/6 18/16/6
f 12/17/7 13/15/7 18/16/7 17/18/7
f 11/19/8 12/17/8 17/18/8 16/20/8
f 16/21/9 17/22/9 7/8/9 6/10/9
f 17/22/10 18/23/10 8/6/10 7/8/10
f 18/23/11 19/24/11 9/2/11 8/6/11
f 19/24/12 20/25/12 10/3/12 9/2/12
f 15/26/13 14/27/13 4/1/13 5/4/13
f 14/27/14 13/28/14 3/5/14 4/1/14
f 13/28/15 12/29/15 2/7/15 3/5/15
f 12/29/16 11/30/16 1/9/16 2/7/16
f 10/3/17 20/31/17 15/32/17 5/4/17
f 6/10/18 1/9/18 11/19/18 16/20/18
