# Blender v3.1.2 OBJ File: 'Buoy_hull.blend'
# www.blender.org
mtllib Level_1_1.mtl
o Level_1_1_Cylinder.009
v -2.360434 8.040938 -0.000000
v -2.315079 8.040938 -0.460498
v -2.180757 8.040938 -0.903300
v -1.962629 8.040938 -1.311387
v -1.669079 8.040938 -1.669079
v -2.405822 9.916734 -0.000000
v -2.359594 9.916734 -0.469353
v -2.222689 9.916734 -0.920669
v -2.000368 9.916734 -1.336603
v -1.701173 9.916734 -1.701173
v -2.144816 8.098663 -0.000000
v -2.103604 8.098663 -0.418433
v -1.981552 8.098663 -0.820786
v -1.783350 8.098663 -1.191596
v -1.516615 8.098663 -1.516614
v -2.186058 9.905018 -0.000000
v -2.144053 9.905018 -0.426479
v -2.019654 9.905018 -0.836569
v -1.817641 9.905018 -1.214509
v -1.545777 9.905018 -1.545776
vt 0.758041 0.784734
vt 0.726175 0.783467
vt 0.725512 0.760067
vt 0.760136 0.761569
vt 0.757329 0.806718
vt 0.726052 0.805765
vt 0.757295 0.828741
vt 0.725533 0.827938
vt 0.758332 0.851655
vt 0.723898 0.851366
vt 0.758848 0.927406
vt 0.759692 0.948945
vt 0.726574 0.950450
vt 0.725714 0.928498
vt 0.758273 0.905859
vt 0.725128 0.906536
vt 0.757967 0.884306
vt 0.724816 0.884569
vt 0.757931 0.862752
vt 0.724780 0.862600
vt 0.712830 0.849285
vt 0.714752 0.827411
vt 0.715224 0.805652
vt 0.715170 0.783736
vt 0.714023 0.761608
vt 0.771081 0.763849
vt 0.768747 0.785425
vt 0.768045 0.806876
vt 0.768133 0.828385
vt 0.769553 0.849979
vt 0.726982 0.748822
vt 0.760311 0.750394
vn -0.7728 -0.0241 -0.6342
vn -0.8817 -0.0241 -0.4713
vn -0.9567 -0.0241 -0.2902
vn -0.9949 -0.0241 -0.0980
vn 0.7728 0.0227 0.6342
vn 0.8817 0.0227 0.4713
vn 0.9567 0.0227 0.2902
vn 0.9949 0.0227 0.0980
vn 0.0532 0.9986 0.0052
vn 0.0512 0.9986 0.0155
vn 0.0472 0.9986 0.0252
vn 0.0414 0.9986 0.0339
vn 0.2008 -0.9657 0.1648
vn 0.2291 -0.9657 0.1225
vn 0.2486 -0.9657 0.0754
vn 0.2585 -0.9657 0.0255
vn 0.7071 -0.0000 -0.7071
vn 0.0000 0.0000 1.0000
usemtl Hull-material
s off
f 4/1/1 9/2/1 10/3/1 5/4/1
f 3/5/2 8/6/2 9/2/2 4/1/2
f 2/7/3 7/8/3 8/6/3 3/5/3
f 1/9/4 6/10/4 7/8/4 2/7/4
f 14/11/5 15/12/5 20/13/5 19/14/5
f 13/15/6 14/11/6 19/14/6 18/16/6
f 12/17/7 13/15/7 18/16/7 17/18/7
f 11/19/8 12/17/8 17/18/8 16/20/8
f 16/21/9 17/22/9 7/8/9 6/10/9
f 17/22/10 18/23/10 8/6/10 7/8/10
f 18/23/11 19/24/11 9/2/11 8/6/11
f 19/24/12 20/25/12 10/3/12 9/2/12
f 15/26/13 14/27/13 4/1/13 5/4/13
f 14/27/14 13/28/14 3/5/14 4/1/14
f 13/28/15 12/29/15 2/7/15 3/5/15
f 12/29/16 11/30/16 1/9/16 2/7/16
f 10/3/17 20/31/17 15/32/17 5/4/17
f 6/10/18 1/9/18 11/19/18 16/20/18
