# Blender v3.1.2 OBJ File: 'Buoy_hull.blend'
# www.blender.org
mtllib Level_3_7.mtl
o Level_3_7_Cylinder.043
v 0.000000 6.178942 -2.135174
v 0.416552 6.178942 -2.094146
v 0.817096 6.178942 -1.972643
v 1.186238 6.178942 -1.775332
v 1.509796 6.178942 -1.509796
v 0.000000 4.944050 -1.855595
v 0.362009 4.944050 -1.819940
v 0.710106 4.944050 -1.714346
v 1.030913 4.944050 -1.542871
v 1.312104 4.944050 -1.312104
v 0.890355 4.079631 -0.890355
v 0.245648 4.079630 -1.234957
v 0.481857 4.079631 -1.163304
v 0.000000 4.079631 -1.259152
v 0.699547 4.079631 -1.046946
v 0.000000 6.305597 -1.940132
v 0.378501 6.305597 -1.902853
v 0.742457 6.305597 -1.792449
v 1.077879 6.305597 -1.613162
v 1.371881 6.305597 -1.371881
v 0.000000 5.116422 -1.686093
v 0.328941 5.116422 -1.653695
v 0.645240 5.116422 -1.557746
v 0.936743 5.116422 -1.401935
v 1.192248 5.116422 -1.192248
v 0.809024 4.091387 -0.809024
v 0.223209 4.091387 -1.122148
v 0.437841 4.091387 -1.057040
v 0.000000 4.091387 -1.144132
v 0.635646 4.091387 -0.951311
vt 0.365407 0.248390
vt 0.391113 0.250754
vt 0.387375 0.272723
vt 0.361691 0.265661
vt 0.379912 0.293975
vt 0.355108 0.282837
vt 0.369314 0.313951
vt 0.345955 0.299340
vt 0.356299 0.332329
vt 0.334250 0.314907
vt 0.315983 0.278785
vt 0.307411 0.289372
vt 0.322809 0.267079
vt 0.327879 0.254560
vt 0.331543 0.240884
vt 0.362108 0.240106
vt 0.361768 0.222536
vt 0.387923 0.220682
vt 0.388016 0.240136
vt 0.359680 0.205225
vt 0.385606 0.200830
vt 0.355632 0.188003
vt 0.381265 0.181194
vt 0.349088 0.170242
vt 0.375140 0.162634
vt 0.320288 0.199178
vt 0.317034 0.187657
vt 0.323264 0.211736
vt 0.325462 0.224737
vt 0.327132 0.237040
vt 0.398092 0.220193
vt 0.397901 0.241106
vt 0.395773 0.199213
vt 0.391248 0.178492
vt 0.384372 0.158445
vt 0.314391 0.200464
vt 0.311556 0.188516
vt 0.317073 0.212815
vt 0.319112 0.225631
vt 0.321207 0.238605
vt 0.319593 0.182233
vt 0.349531 0.160356
vt 0.375483 0.152214
vn 0.0956 -0.2198 -0.9708
vn 0.2832 -0.2198 -0.9335
vn 0.4599 -0.2198 -0.8604
vn 0.6189 -0.2198 -0.7541
vn 0.5230 -0.5661 -0.6372
vn 0.3886 -0.5661 -0.7270
vn 0.2393 -0.5661 -0.7889
vn 0.0808 -0.5661 -0.8204
vn -0.0959 0.2080 0.9734
vn -0.2839 0.2080 0.9360
vn -0.4611 0.2080 0.8626
vn -0.6205 0.2080 0.7561
vn -0.5614 0.4657 0.6841
vn -0.4172 0.4657 0.7805
vn -0.2569 0.4657 0.8469
vn -0.0867 0.4657 0.8807
vn 0.0536 0.8375 -0.5438
vn 0.1586 0.8375 -0.5229
vn 0.2576 0.8375 -0.4819
vn 0.3467 0.8375 -0.4224
vn -0.0648 -0.9948 0.0790
vn -0.0482 -0.9948 0.0901
vn -0.0297 -0.9948 0.0978
vn -0.0100 -0.9948 0.1017
vn -1.0000 0.0000 0.0000
vn 0.7071 -0.0000 0.7071
usemtl Hull-material
s off
f 6/1/1 1/2/1 2/3/1 7/4/1
f 7/4/2 2/3/2 3/5/2 8/6/2
f 8/6/3 3/5/3 4/7/3 9/8/3
f 9/8/4 4/7/4 5/9/4 10/10/4
f 15/11/5 9/8/5 10/10/5 11/12/5
f 13/13/6 8/6/6 9/8/6 15/11/6
f 12/14/7 7/4/7 8/6/7 13/13/7
f 14/15/8 6/1/8 7/4/8 12/14/8
f 21/16/9 22/17/9 17/18/9 16/19/9
f 22/17/10 23/20/10 18/21/10 17/18/10
f 23/20/11 24/22/11 19/23/11 18/21/11
f 24/22/12 25/24/12 20/25/12 19/23/12
f 30/26/13 26/27/13 25/24/13 24/22/13
f 28/28/14 30/26/14 24/22/14 23/20/14
f 27/29/15 28/28/15 23/20/15 22/17/15
f 29/30/16 27/29/16 22/17/16 21/16/16
f 16/19/17 17/18/17 2/31/17 1/32/17
f 17/18/18 18/21/18 3/33/18 2/31/18
f 18/21/19 19/23/19 4/34/19 3/33/19
f 19/23/20 20/25/20 5/35/20 4/34/20
f 26/27/21 30/26/21 15/36/21 11/37/21
f 30/26/22 28/28/22 13/38/22 15/36/22
f 28/28/23 27/29/23 12/39/23 13/38/23
f 27/29/24 29/30/24 14/40/24 12/39/24
f 14/15/25 29/30/25 21/16/25 16/19/25 1/2/25 6/1/25
f 11/41/26 10/42/26 5/43/26 20/25/26 25/24/26 26/27/26
