# Blender v3.1.2 OBJ File: 'Buoy_hull.blend'
# www.blender.org
mtllib Level_2_7.mtl
o Level_2_7_Cylinder.034
v 0.000000 8.040938 -2.360434
v 0.460498 8.040938 -2.315078
v 0.903300 8.040938 -2.180756
v 1.311387 8.040938 -1.962629
v 1.669079 8.040938 -1.669079
v 0.000000 6.178942 -2.135173
v 0.416552 6.178942 -2.094146
v 0.817096 6.178942 -1.972642
v 1.186238 6.178942 -1.775332
v 1.509796 6.178942 -1.509796
v 0.000000 8.098663 -2.144816
v 0.418433 8.098663 -2.103604
v 0.820786 8.098663 -1.981551
v 1.191596 8.098663 -1.783349
v 1.516614 8.098663 -1.516614
v 0.000000 6.305597 -1.940132
v 0.378501 6.305597 -1.902853
v 0.742457 6.305597 -1.792448
v 1.077879 6.305597 -1.613161
v 1.371881 6.305597 -1.371881
vt 0.806709 0.577837
vt 0.777100 0.570828
vt 0.782329 0.551476
vt 0.811439 0.560332
vt 0.803088 0.595605
vt 0.773098 0.590470
vt 0.800591 0.613566
vt 0.770337 0.610326
vt 0.799228 0.631648
vt 0.768830 0.630315
vt 0.802664 0.694167
vt 0.803238 0.710963
vt 0.774212 0.715263
vt 0.771151 0.696379
vt 0.801810 0.676210
vt 0.769708 0.676986
vt 0.800976 0.657936
vt 0.769465 0.657784
vt 0.799702 0.640309
vt 0.770578 0.639534
vt 0.760084 0.657375
vt 0.761700 0.638006
vt 0.760071 0.677252
vt 0.761418 0.697475
vt 0.764897 0.717812
vt 0.811436 0.694079
vt 0.811439 0.711616
vt 0.810906 0.676008
vt 0.810255 0.657475
vt 0.808587 0.638655
vt 0.803813 0.719680
vt 0.773581 0.724692
vn 0.6298 -0.1195 -0.7675
vn 0.4680 -0.1195 -0.8756
vn 0.2882 -0.1195 -0.9501
vn 0.0973 -0.1195 -0.9880
vn -0.6303 0.1129 0.7681
vn -0.4684 0.1129 0.8763
vn -0.2884 0.1129 0.9508
vn -0.0974 0.1129 0.9888
vn 0.0255 0.9657 -0.2585
vn 0.0754 0.9657 -0.2486
vn 0.1225 0.9657 -0.2291
vn 0.1648 0.9657 -0.2008
vn -0.3467 -0.8375 0.4224
vn -0.2576 -0.8375 0.4819
vn -0.1586 -0.8375 0.5229
vn -0.0536 -0.8375 0.5438
vn -1.0000 0.0000 0.0000
vn 0.7071 0.0000 0.7071
usemtl Hull-material
s off
f 9/1/1 4/2/1 5/3/1 10/4/1
f 8/5/2 3/6/2 4/2/2 9/1/2
f 7/7/3 2/8/3 3/6/3 8/5/3
f 6/9/4 1/10/4 2/8/4 7/7/4
f 19/11/5 20/12/5 15/13/5 14/14/5
f 18/15/6 19/11/6 14/14/6 13/16/6
f 17/17/7 18/15/7 13/16/7 12/18/7
f 16/19/8 17/17/8 12/18/8 11/20/8
f 11/20/9 12/18/9 2/21/9 1/22/9
f 12/18/10 13/16/10 3/23/10 2/21/10
f 13/16/11 14/14/11 4/24/11 3/23/11
f 14/14/12 15/13/12 5/25/12 4/24/12
f 20/12/13 19/11/13 9/26/13 10/27/13
f 19/11/14 18/15/14 8/28/14 9/26/14
f 18/15/15 17/17/15 7/29/15 8/28/15
f 17/17/16 16/19/16 6/30/16 7/29/16
f 6/9/17 16/19/17 11/20/17 1/10/17
f 10/31/18 5/32/18 15/13/18 20/12/18
