# Blender v3.1.2 OBJ File: 'Buoy_hull.blend'
# www.blender.org
mtllib Level_3_5.mtl
o Level_3_5_Cylinder.041
v 2.135174 6.178942 -0.000000
v 2.094146 6.178942 0.416552
v 1.972643 6.178942 0.817096
v 1.775333 6.178942 1.186238
v 1.509796 6.178942 1.509796
v 1.855595 4.944050 -0.000000
v 1.819940 4.944050 0.362009
v 1.714346 4.944050 0.710106
v 1.542871 4.944050 1.030913
v 1.312104 4.944050 1.312104
v 0.890355 4.079631 0.890355
v 1.234957 4.079630 0.245648
v 1.163304 4.079631 0.481857
v 1.259152 4.079631 -0.000000
v 1.046947 4.079631 0.699547
v 1.940132 6.305597 0.000000
v 1.902853 6.305597 0.378501
v 1.792449 6.305597 0.742457
v 1.613162 6.305597 1.077879
v 1.371881 6.305597 1.371881
v 1.686093 5.116422 0.000000
v 1.653695 5.116422 0.328941
v 1.557746 5.116422 0.645240
v 1.401935 5.116422 0.936742
v 1.192248 5.116422 1.192248
v 0.809024 4.091387 0.809024
v 1.122148 4.091387 0.223209
v 1.057040 4.091387 0.437841
v 1.144132 4.091387 0.000000
v 0.951311 4.091387 0.635646
vt 0.169208 0.236147
vt 0.192385 0.238279
vt 0.189015 0.258087
vt 0.165857 0.251719
vt 0.182286 0.277249
vt 0.159921 0.267206
vt 0.172731 0.295260
vt 0.151668 0.282085
vt 0.160995 0.311831
vt 0.141114 0.296122
vt 0.124644 0.263553
vt 0.116916 0.273098
vt 0.130799 0.252998
vt 0.135370 0.241710
vt 0.138674 0.229379
vt 0.166233 0.228678
vt 0.165927 0.212836
vt 0.189509 0.211164
vt 0.189593 0.228705
vt 0.164044 0.197227
vt 0.187420 0.193264
vt 0.160394 0.181698
vt 0.183506 0.175559
vt 0.154494 0.165684
vt 0.177984 0.158825
vt 0.128526 0.191775
vt 0.125592 0.181387
vt 0.131209 0.203098
vt 0.133191 0.214820
vt 0.134697 0.225913
vt 0.198678 0.210723
vt 0.198506 0.229579
vt 0.196587 0.191806
vt 0.192508 0.173123
vt 0.186308 0.155047
vt 0.123209 0.192935
vt 0.120653 0.182161
vt 0.125627 0.204071
vt 0.127466 0.215627
vt 0.129355 0.227324
vt 0.127900 0.176496
vt 0.154893 0.156771
vt 0.178292 0.149429
vn 0.9708 -0.2198 0.0956
vn 0.9335 -0.2198 0.2832
vn 0.8604 -0.2198 0.4599
vn 0.7541 -0.2198 0.6189
vn 0.6372 -0.5661 0.5230
vn 0.7270 -0.5661 0.3886
vn 0.7889 -0.5661 0.2393
vn 0.8204 -0.5661 0.0808
vn -0.9734 0.2080 -0.0959
vn -0.9360 0.2080 -0.2839
vn -0.8626 0.2080 -0.4611
vn -0.7561 0.2080 -0.6205
vn -0.6841 0.4657 -0.5614
vn -0.7805 0.4657 -0.4172
vn -0.8469 0.4657 -0.2569
vn -0.8807 0.4657 -0.0867
vn 0.5438 0.8375 0.0536
vn 0.5229 0.8375 0.1586
vn 0.4819 0.8375 0.2576
vn 0.4224 0.8375 0.3467
vn -0.0790 -0.9948 -0.0648
vn -0.0901 -0.9948 -0.0482
vn -0.0978 -0.9948 -0.0297
vn -0.1017 -0.9948 -0.0100
vn -0.0000 0.0000 -1.0000
vn -0.7071 -0.0000 0.7071
usemtl Hull-material
s off
f 6/1/1 1/2/1 2/3/1 7/4/1
f 7/4/2 2/3/2 3/5/2 8/6/2
f 8/6/3 3/5/3 4/7/3 9/8/3
f 9/8/4 4/7/4 5/9/4 10/10/4
f 15/11/5 9/8/5 10/10/5 11/12/5
f 13/13/6 8/6/6 9/8/6 15/11/6
f 12/14/7 7/4/7 8/6/7 13/13/7
f 14/15/8 6/1/8 7/4/8 12/14/8
f 21/16/9 22/17/9 17/18/9 16/19/9
f 22/17/10 23/20/10 18/21/10 17/18/10
f 23/20/11 24/22/11 19/23/11 18/21/11
f 24/22/12 25/24/12 20/25/12 19/23/12
f 30/26/13 26/27/13 25/24/13 24/22/13
f 28/28/14 30/26/14 24/22/14 23/20/14
f 27/29/15 28/28/15 23/20/15 22/17/15
f 29/30/16 27/29/16 22/17/16 21/16/16
f 16/19/17 17/18/17 2/31/17 1/32/17
f 17/18/18 18/21/18 3/33/18 2/31/18
f 18/21/19 19/23/19 4/34/19 3/33/19
f 19/23/20 20/25/20 5/35/20 4/34/20
f 26/27/21 30/26/21 15/36/21 11/37/21
f 30/26/22 28/28/22 13/38/22 15/36/22
f 28/28/23 27/29/23 12/39/23 13/38/23
f 27/29/24 29/30/24 14/40/24 12/39/24
f 14/15/25 29/30/25 21/16/25 16/19/25 1/2/25 6/1/25
f 11/41/26 10/42/26 5/43/26 20/25/26 25/24/26 26/27/26
