# Blender v3.1.2 OBJ File: 'Buoy_hull.blend'
# www.blender.org
mtllib Level_2_5.mtl
o Level_2_5_Cylinder.032
v 2.360434 8.040938 0.000000
v 2.315079 8.040938 0.460498
v 2.180757 8.040938 0.903300
v 1.962629 8.040938 1.311387
v 1.669080 8.040938 1.669079
v 2.135174 6.178942 0.000000
v 2.094146 6.178942 0.416552
v 1.972643 6.178942 0.817096
v 1.775333 6.178942 1.186239
v 1.509796 6.178942 1.509796
v 2.144816 8.098663 0.000001
v 2.103604 8.098663 0.418434
v 1.981552 8.098663 0.820787
v 1.783350 8.098663 1.191596
v 1.516615 8.098663 1.516615
v 1.940132 6.305597 0.000001
v 1.902853 6.305597 0.378502
v 1.792449 6.305597 0.742458
v 1.613162 6.305597 1.077880
v 1.371881 6.305597 1.371881
vt 0.919898 0.581781
vt 0.890652 0.574858
vt 0.895817 0.555743
vt 0.924570 0.564491
vt 0.916322 0.599331
vt 0.886699 0.594260
vt 0.913855 0.617072
vt 0.883972 0.613871
vt 0.912509 0.634932
vt 0.882484 0.633616
vt 0.915902 0.696684
vt 0.916470 0.713275
vt 0.887800 0.717522
vt 0.884776 0.698870
vt 0.915060 0.678948
vt 0.883351 0.679714
vt 0.914236 0.660898
vt 0.883111 0.660748
vt 0.912977 0.643487
vt 0.884210 0.642722
vt 0.873845 0.660343
vt 0.875442 0.641213
vt 0.873832 0.679977
vt 0.875162 0.699952
vt 0.878599 0.720040
vt 0.924568 0.696598
vt 0.924570 0.713919
vt 0.924044 0.678748
vt 0.923400 0.660442
vt 0.921753 0.641853
vt 0.917037 0.721885
vt 0.887176 0.726836
vn 0.7675 -0.1195 0.6298
vn 0.8756 -0.1195 0.4680
vn 0.9501 -0.1195 0.2882
vn 0.9880 -0.1195 0.0973
vn -0.7681 0.1129 -0.6303
vn -0.8763 0.1129 -0.4684
vn -0.9508 0.1129 -0.2884
vn -0.9888 0.1129 -0.0974
vn 0.2585 0.9657 0.0255
vn 0.2486 0.9657 0.0754
vn 0.2291 0.9657 0.1225
vn 0.2008 0.9657 0.1648
vn -0.4224 -0.8375 -0.3467
vn -0.4819 -0.8375 -0.2576
vn -0.5229 -0.8375 -0.1586
vn -0.5438 -0.8375 -0.0536
vn -0.0000 0.0000 -1.0000
vn -0.7071 0.0000 0.7071
usemtl Hull-material
s off
f 9/1/1 4/2/1 5/3/1 10/4/1
f 8/5/2 3/6/2 4/2/2 9/1/2
f 7/7/3 2/8/3 3/6/3 8/5/3
f 6/9/4 1/10/4 2/8/4 7/7/4
f 19/11/5 20/12/5 15/13/5 14/14/5
f 18/15/6 19/11/6 14/14/6 13/16/6
f 17/17/7 18/15/7 13/16/7 12/18/7
f 16/19/8 17/17/8 12/18/8 11/20/8
f 11/20/9 12/18/9 2/21/9 1/22/9
f 12/18/10 13/16/10 3/23/10 2/21/10
f 13/16/11 14/14/11 4/24/11 3/23/11
f 14/14/12 15/13/12 5/25/12 4/24/12
f 20/12/13 19/11/13 9/26/13 10/27/13
f 19/11/14 18/15/14 8/28/14 9/26/14
f 18/15/15 17/17/15 7/29/15 8/28/15
f 17/17/16 16/19/16 6/30/16 7/29/16
f 6/9/17 16/19/17 11/20/17 1/10/17
f 10/31/18 5/32/18 15/13/18 20/12/18
