# Blender v3.1.2 OBJ File: 'Buoy_hull.blend'
# www.blender.org
mtllib Level_2_6.mtl
o Level_2_6_Cylinder.033
v 1.669079 8.040938 -1.669078
v 1.962629 8.040938 -1.311386
v 2.180757 8.040938 -0.903298
v 2.315079 8.040938 -0.460497
v 2.360435 8.040938 0.000000
v 1.509796 6.178942 -1.509795
v 1.775332 6.178942 -1.186238
v 1.972643 6.178942 -0.817094
v 2.094147 6.178942 -0.416552
v 2.135174 6.178942 0.000000
v 1.516614 8.098663 -1.516613
v 1.783350 8.098663 -1.191595
v 1.981552 8.098663 -0.820784
v 2.103604 8.098663 -0.418433
v 2.144817 8.098663 0.000000
v 1.371881 6.305597 -1.371880
v 1.613161 6.305597 -1.077879
v 1.792449 6.305597 -0.742455
v 1.902853 6.305597 -0.378501
v 1.940133 6.305597 0.000001
vt 0.859077 0.578924
vt 0.829301 0.573082
vt 0.833764 0.553595
vt 0.863114 0.561296
vt 0.856155 0.596769
vt 0.826071 0.592811
vt 0.854360 0.614764
vt 0.824087 0.612703
vt 0.853700 0.632835
vt 0.823357 0.632681
vt 0.859538 0.695004
vt 0.860759 0.711719
vt 0.832000 0.717125
vt 0.828221 0.698425
vt 0.857994 0.677143
vt 0.826034 0.679155
vt 0.856457 0.658965
vt 0.825051 0.660030
vt 0.854507 0.641448
vt 0.825454 0.641801
vt 0.815686 0.659984
vt 0.816549 0.640621
vt 0.816441 0.679792
vt 0.818564 0.699894
vt 0.822816 0.720025
vt 0.868277 0.694577
vt 0.868956 0.712053
vt 0.867051 0.676590
vt 0.865686 0.658146
vt 0.863297 0.639457
vt 0.861668 0.720384
vt 0.831735 0.726546
vn 0.9880 -0.1195 -0.0973
vn 0.9501 -0.1195 -0.2882
vn 0.8756 -0.1195 -0.4680
vn 0.7675 -0.1195 -0.6298
vn -0.9888 0.1129 0.0974
vn -0.9508 0.1129 0.2884
vn -0.8763 0.1129 0.4684
vn -0.7681 0.1129 0.6303
vn 0.2008 0.9657 -0.1648
vn 0.2291 0.9657 -0.1225
vn 0.2486 0.9657 -0.0754
vn 0.2585 0.9657 -0.0255
vn -0.5438 -0.8375 0.0536
vn -0.5229 -0.8375 0.1586
vn -0.4819 -0.8375 0.2576
vn -0.4224 -0.8375 0.3467
vn -0.7071 0.0000 -0.7071
vn 0.0000 0.0000 1.0000
usemtl Hull-material
s off
f 9/1/1 4/2/1 5/3/1 10/4/1
f 8/5/2 3/6/2 4/2/2 9/1/2
f 7/7/3 2/8/3 3/6/3 8/5/3
f 6/9/4 1/10/4 2/8/4 7/7/4
f 19/11/5 20/12/5 15/13/5 14/14/5
f 18/15/6 19/11/6 14/14/6 13/16/6
f 17/17/7 18/15/7 13/16/7 12/18/7
f 16/19/8 17/17/8 12/18/8 11/20/8
f 11/20/9 12/18/9 2/21/9 1/22/9
f 12/18/10 13/16/10 3/23/10 2/21/10
f 13/16/11 14/14/11 4/24/11 3/23/11
f 14/14/12 15/13/12 5/25/12 4/24/12
f 20/12/13 19/11/13 9/26/13 10/27/13
f 19/11/14 18/15/14 8/28/14 9/26/14
f 18/15/15 17/17/15 7/29/15 8/28/15
f 17/17/16 16/19/16 6/30/16 7/29/16
f 6/9/17 16/19/17 11/20/17 1/10/17
f 10/31/18 5/32/18 15/13/18 20/12/18
