# Blender v3.1.2 OBJ File: 'Buoy_hull.blend'
# www.blender.org
mtllib Level_2_3.mtl
o Level_2_3_Cylinder.030
v -0.000000 8.040938 2.360435
v -0.460498 8.040938 2.315079
v -0.903300 8.040938 2.180757
v -1.311387 8.040938 1.962630
v -1.669079 8.040938 1.669080
v -0.000000 6.178942 2.135174
v -0.416552 6.178942 2.094147
v -0.817096 6.178942 1.972643
v -1.186238 6.178942 1.775333
v -1.509796 6.178942 1.509797
v -0.000000 8.098663 2.144817
v -0.418433 8.098663 2.103605
v -0.820786 8.098663 1.981552
v -1.191596 8.098663 1.783350
v -1.516614 8.098663 1.516615
v -0.000000 6.305597 1.940133
v -0.378501 6.305597 1.902854
v -0.742457 6.305597 1.792449
v -1.077879 6.305597 1.613162
v -1.371881 6.305597 1.371882
vt 0.748475 0.571065
vt 0.716925 0.563595
vt 0.722497 0.542974
vt 0.753515 0.552411
vt 0.744617 0.589998
vt 0.712660 0.584526
vt 0.741956 0.609136
vt 0.709719 0.605683
vt 0.740504 0.628404
vt 0.708113 0.626984
vt 0.744165 0.695022
vt 0.744777 0.712920
vt 0.713848 0.717502
vt 0.710586 0.697380
vt 0.743256 0.675888
vt 0.709048 0.676715
vt 0.742367 0.656416
vt 0.708790 0.656254
vt 0.741009 0.637632
vt 0.709975 0.636808
vt 0.698793 0.655818
vt 0.700516 0.635179
vt 0.698779 0.676998
vt 0.700215 0.698548
vt 0.703921 0.720219
vt 0.753513 0.694929
vt 0.753515 0.713616
vt 0.752948 0.675673
vt 0.752254 0.655924
vt 0.750477 0.635871
vt 0.745389 0.722209
vt 0.713175 0.727550
vn -0.6298 -0.1195 0.7675
vn -0.4680 -0.1195 0.8756
vn -0.2882 -0.1195 0.9501
vn -0.0973 -0.1195 0.9880
vn 0.6303 0.1129 -0.7681
vn 0.4684 0.1129 -0.8763
vn 0.2884 0.1129 -0.9508
vn 0.0974 0.1129 -0.9888
vn -0.0255 0.9657 0.2585
vn -0.0754 0.9657 0.2486
vn -0.1225 0.9657 0.2291
vn -0.1648 0.9657 0.2008
vn 0.3467 -0.8375 -0.4224
vn 0.2576 -0.8375 -0.4819
vn 0.1586 -0.8375 -0.5229
vn 0.0536 -0.8375 -0.5438
vn 1.0000 0.0000 -0.0000
vn -0.7071 0.0000 -0.7071
usemtl Hull-material
s off
f 9/1/1 4/2/1 5/3/1 10/4/1
f 8/5/2 3/6/2 4/2/2 9/1/2
f 7/7/3 2/8/3 3/6/3 8/5/3
f 6/9/4 1/10/4 2/8/4 7/7/4
f 19/11/5 20/12/5 15/13/5 14/14/5
f 18/15/6 19/11/6 14/14/6 13/16/6
f 17/17/7 18/15/7 13/16/7 12/18/7
f 16/19/8 17/17/8 12/18/8 11/20/8
f 11/20/9 12/18/9 2/21/9 1/22/9
f 12/18/10 13/16/10 3/23/10 2/21/10
f 13/16/11 14/14/11 4/24/11 3/23/11
f 14/14/12 15/13/12 5/25/12 4/24/12
f 20/12/13 19/11/13 9/26/13 10/27/13
f 19/11/14 18/15/14 8/28/14 9/26/14
f 18/15/15 17/17/15 7/29/15 8/28/15
f 17/17/16 16/19/16 6/30/16 7/29/16
f 6/9/17 16/19/17 11/20/17 1/10/17
f 10/31/18 5/32/18 15/13/18 20/12/18
