# Blender v3.1.2 OBJ File: 'Buoy_hull.blend'
# www.blender.org
mtllib Level_2_1.mtl
o Level_2_1_Cylinder.022
v -2.360434 8.040938 0.000000
v -2.315079 8.040938 -0.460498
v -2.180757 8.040938 -0.903299
v -1.962629 8.040938 -1.311386
v -1.669079 8.040938 -1.669079
v -2.135174 6.178942 0.000000
v -2.094146 6.178942 -0.416552
v -1.972643 6.178942 -0.817096
v -1.775332 6.178942 -1.186238
v -1.509796 6.178942 -1.509795
v -2.144816 8.098663 0.000000
v -2.103604 8.098663 -0.418433
v -1.981552 8.098663 -0.820786
v -1.783350 8.098663 -1.191595
v -1.516615 8.098663 -1.516614
v -1.940132 6.305597 0.000000
v -1.902853 6.305597 -0.378501
v -1.792449 6.305597 -0.742457
v -1.613162 6.305597 -1.077879
v -1.371881 6.305597 -1.371880
vt 0.469361 0.684369
vt 0.463903 0.716578
vt 0.442806 0.712316
vt 0.450278 0.680514
vt 0.488649 0.687017
vt 0.485226 0.719505
vt 0.508065 0.688448
vt 0.506690 0.721087
vt 0.527533 0.688655
vt 0.528212 0.721316
vt 0.594279 0.680642
vt 0.612235 0.678862
vt 0.618854 0.709664
vt 0.598833 0.714252
vt 0.575099 0.682801
vt 0.578155 0.717142
vt 0.555578 0.684961
vt 0.557599 0.718732
vt 0.536780 0.687547
vt 0.537969 0.718805
vt 0.557810 0.728812
vt 0.536947 0.728422
vt 0.579108 0.727449
vt 0.600683 0.724604
vt 0.622231 0.719468
vt 0.593578 0.671249
vt 0.612366 0.670031
vt 0.574253 0.673069
vt 0.554441 0.675051
vt 0.534393 0.678142
vt 0.621535 0.677643
vt 0.629001 0.709687
vn -0.7675 -0.1195 -0.6298
vn -0.8756 -0.1195 -0.4680
vn -0.9501 -0.1195 -0.2882
vn -0.9880 -0.1195 -0.0973
vn 0.7681 0.1129 0.6303
vn 0.8763 0.1129 0.4684
vn 0.9508 0.1129 0.2884
vn 0.9888 0.1129 0.0974
vn -0.2585 0.9657 -0.0255
vn -0.2486 0.9657 -0.0754
vn -0.2291 0.9657 -0.1225
vn -0.2008 0.9657 -0.1648
vn 0.4224 -0.8375 0.3467
vn 0.4819 -0.8375 0.2576
vn 0.5229 -0.8375 0.1586
vn 0.5438 -0.8375 0.0536
vn 0.0000 0.0000 1.0000
vn 0.7071 0.0000 -0.7071
usemtl Hull-material
s off
f 9/1/1 4/2/1 5/3/1 10/4/1
f 8/5/2 3/6/2 4/2/2 9/1/2
f 7/7/3 2/8/3 3/6/3 8/5/3
f 6/9/4 1/10/4 2/8/4 7/7/4
f 19/11/5 20/12/5 15/13/5 14/14/5
f 18/15/6 19/11/6 14/14/6 13/16/6
f 17/17/7 18/15/7 13/16/7 12/18/7
f 16/19/8 17/17/8 12/18/8 11/20/8
f 11/20/9 12/18/9 2/21/9 1/22/9
f 12/18/10 13/16/10 3/23/10 2/21/10
f 13/16/11 14/14/11 4/24/11 3/23/11
f 14/14/12 15/13/12 5/25/12 4/24/12
f 20/12/13 19/11/13 9/26/13 10/27/13
f 19/11/14 18/15/14 8/28/14 9/26/14
f 18/15/15 17/17/15 7/29/15 8/28/15
f 17/17/16 16/19/16 6/30/16 7/29/16
f 6/9/17 16/19/17 11/20/17 1/10/17
f 10/31/18 5/32/18 15/13/18 20/12/18
